<?xml version="1.0" encoding="UTF-8"?>
<!DOCTYPE svg PUBLIC "-//W3C//DTD SVG 1.1//EN" "http://www.w3.org/Graphics/SVG/1.1/DTD/svg11.dtd">
<svg xmlns="http://www.w3.org/2000/svg" version="1.1" width="300px" height="300px" style="shape-rendering:geometricPrecision; text-rendering:geometricPrecision; image-rendering:optimizeQuality; fill-rule:evenodd; clip-rule:evenodd" xmlns:xlink="http://www.w3.org/1999/xlink">
<g><path style="opacity:1" fill="#020202" d="M 26.5,-0.5 C 111.833,-0.5 197.167,-0.5 282.5,-0.5C 286.134,10.7039 286.467,22.0373 283.5,33.5C 282.675,30.6282 281.841,27.6282 281,24.5C 280.392,26.1545 279.892,27.8211 279.5,29.5C 277.293,33.251 275.626,37.251 274.5,41.5C 273.839,40.2825 273.172,38.9492 272.5,37.5C 271.702,37.9569 271.369,38.6236 271.5,39.5C 268.536,41.9619 265.703,44.6286 263,47.5C 262.536,46.9056 262.369,46.2389 262.5,45.5C 263.776,44.6136 263.776,43.6136 262.5,42.5C 261.893,42.6236 261.56,42.9569 261.5,43.5C 260.749,44.5735 259.749,44.7401 258.5,44C 259.056,43.6174 259.389,43.1174 259.5,42.5C 261.3,41.1052 261.634,39.4385 260.5,37.5C 259.575,38.3569 258.908,39.3569 258.5,40.5C 257.833,40.8333 257.167,41.1667 256.5,41.5C 256.5,41.1667 256.5,40.8333 256.5,40.5C 258.085,35.9282 258.919,31.2615 259,26.5C 257.52,30.6151 255.853,34.6151 254,38.5C 253.667,37.5 253.333,36.5 253,35.5C 251.88,37.0302 251.046,38.6968 250.5,40.5C 249.272,41.3065 248.272,42.3065 247.5,43.5C 247.914,34.4178 247.414,25.4178 246,16.5C 244.54,19.7478 243.374,23.0812 242.5,26.5C 240.762,31.382 239.429,36.382 238.5,41.5C 237.094,46.0586 236.094,50.7253 235.5,55.5C 234.504,55.4142 233.671,55.7476 233,56.5C 230.833,63.6667 228.667,70.8333 226.5,78C 227.287,80.0989 227.62,82.2655 227.5,84.5C 227.205,86.7354 227.539,88.7354 228.5,90.5C 228.527,96.0506 229.194,101.384 230.5,106.5C 230.5,107.167 230.5,107.833 230.5,108.5C 230.719,112.484 230.719,116.318 230.5,120C 231.333,122.905 232.667,124.739 234.5,125.5C 233.512,126.19 232.512,127.357 231.5,129C 232.45,131.91 234.45,133.077 237.5,132.5C 237.927,135.01 238.593,137.343 239.5,139.5C 239.5,140.167 239.5,140.833 239.5,141.5C 238.309,146.645 238.309,151.645 239.5,156.5C 240.5,158.5 241.5,160.5 242.5,162.5C 243.512,163.872 244.512,165.205 245.5,166.5C 246.5,168.167 247.833,169.5 249.5,170.5C 249.5,171.167 249.167,171.5 248.5,171.5C 242.32,167.322 237.654,161.822 234.5,155C 224.767,153.634 216.1,149.801 208.5,143.5C 207.524,142.185 206.524,140.852 205.5,139.5C 205.167,139.833 204.833,140.167 204.5,140.5C 205.521,141.901 206.521,143.235 207.5,144.5C 210.51,150.023 214.51,154.856 219.5,159C 218.5,159.167 217.5,159.333 216.5,159.5C 206.393,155.613 196.727,150.946 187.5,145.5C 184.535,143.55 181.535,141.55 178.5,139.5C 178.167,140 177.833,140.5 177.5,141C 178.761,144.308 180.094,147.475 181.5,150.5C 182.74,156.662 185.74,161.662 190.5,165.5C 190.5,166.167 190.5,166.833 190.5,167.5C 191.96,169.463 193.627,171.296 195.5,173C 192.802,173.065 190.636,171.898 189,169.5C 188.667,170.833 188.333,172.167 188,173.5C 186.94,168.273 183.773,165.273 178.5,164.5C 177.432,163.566 176.099,163.232 174.5,163.5C 173.038,162.542 171.705,161.376 170.5,160C 163.088,159.7 155.754,158.866 148.5,157.5C 141.799,155.574 135.299,152.907 129,149.5C 128.5,149.667 128,149.833 127.5,150C 132.511,154.005 138.178,156.672 144.5,158C 143.207,158.49 141.873,158.657 140.5,158.5C 139.5,158.5 138.5,158.5 137.5,158.5C 135.881,156.762 133.881,156.262 131.5,157C 132.833,157.667 134.167,158.333 135.5,159C 133.305,159.409 131.305,158.909 129.5,157.5C 127.343,155.588 125.009,153.921 122.5,152.5C 118.018,151.674 113.351,151.174 108.5,151C 111.833,150.667 115.167,150.333 118.5,150C 118.167,149.667 117.833,149.333 117.5,149C 110.797,149.18 104.13,149.014 97.5,148.5C 96.609,147.89 95.609,147.557 94.5,147.5C 80.7952,144.162 70.1285,136.662 62.5,125C 60.2884,124.211 58.2884,124.378 56.5,125.5C 51.9946,125.729 47.6613,125.063 43.5,123.5C 41.5,122.833 39.5,122.167 37.5,121.5C 37.1412,119.629 36.1412,118.129 34.5,117C 33.184,116.472 32.5173,116.972 32.5,118.5C 31.8333,118.5 31.1667,118.5 30.5,118.5C 32.2607,115.663 31.7607,113.33 29,111.5C 28.6174,112.056 28.1174,112.389 27.5,112.5C 26.1599,109.471 24.8266,106.471 23.5,103.5C 23.6882,101.897 23.1882,100.563 22,99.5C 21.2109,101.712 21.3775,103.712 22.5,105.5C 23.0014,111.84 24.3347,118.007 26.5,124C 26.7224,126.275 25.7224,127.441 23.5,127.5C 20.8333,124.5 18.1667,121.5 15.5,118.5C 16.625,117.348 16.625,116.348 15.5,115.5C 13.8333,110.833 12.1667,106.167 10.5,101.5C 10.1128,98.7939 9.11284,96.4605 7.5,94.5C 6.20574,96.0478 5.53907,98.0478 5.5,100.5C 5.50465,102.696 5.83798,104.696 6.5,106.5C 7.51577,116.258 10.5158,125.258 15.5,133.5C 13.4727,132.139 11.806,130.473 10.5,128.5C 9.10519,124.485 7.60519,120.485 6,116.5C 4.69895,104.873 4.19895,93.2058 4.5,81.5C 4.54103,67.325 6.04103,53.325 9,39.5C 13.5076,25.4943 19.341,12.161 26.5,-0.5 Z"/></g>
<g><path style="opacity:1" fill="#fcfbfb" d="M 282.5,-0.5 C 288.167,-0.5 293.833,-0.5 299.5,-0.5C 299.5,37.8333 299.5,76.1667 299.5,114.5C 294.5,114.5 289.5,114.5 284.5,114.5C 284.64,112.876 283.973,111.71 282.5,111C 277.5,110 272.5,109 267.5,108C 265.951,106.786 264.785,105.286 264,103.5C 263.086,104.654 262.253,104.487 261.5,103C 262.448,102.517 263.448,102.351 264.5,102.5C 264.02,99.3148 264.686,96.4815 266.5,94C 265.692,93.6924 265.025,93.1924 264.5,92.5C 265.364,90.8035 266.697,89.6368 268.5,89C 266.574,88.5776 265.574,87.4109 265.5,85.5C 267.112,81.0056 267.778,76.339 267.5,71.5C 267.44,70.9569 267.107,70.6236 266.5,70.5C 265.614,71.325 265.281,72.325 265.5,73.5C 263.833,73.5 262.167,73.5 260.5,73.5C 260.324,70.2727 259.657,67.2727 258.5,64.5C 254.89,58.4048 253.556,51.7381 254.5,44.5C 253.209,44.7373 252.209,44.404 251.5,43.5C 253.698,43.8799 255.365,43.2132 256.5,41.5C 257.167,41.1667 257.833,40.8333 258.5,40.5C 259.338,40.8417 259.672,41.5084 259.5,42.5C 259.389,43.1174 259.056,43.6174 258.5,44C 259.749,44.7401 260.749,44.5735 261.5,43.5C 262.338,43.8417 262.672,44.5084 262.5,45.5C 262.369,46.2389 262.536,46.9056 263,47.5C 265.703,44.6286 268.536,41.9619 271.5,39.5C 271.906,41.4048 272.239,43.4048 272.5,45.5C 273.705,44.4231 274.372,43.0898 274.5,41.5C 275.626,37.251 277.293,33.251 279.5,29.5C 280.117,29.3893 280.617,29.056 281,28.5C 281.186,30.9005 281.686,33.2338 282.5,35.5C 283.298,35.0431 283.631,34.3764 283.5,33.5C 286.467,22.0373 286.134,10.7039 282.5,-0.5 Z"/></g>
<g><path style="opacity:1" fill="#f7f7f7" d="M -0.5,-0.5 C 8.5,-0.5 17.5,-0.5 26.5,-0.5C 19.341,12.161 13.5076,25.4943 9,39.5C 6.04103,53.325 4.54103,67.325 4.5,81.5C 3.67121,88.6552 3.17121,95.9885 3,103.5C 2.25974,101.681 1.09307,100.348 -0.5,99.5C -0.5,66.1667 -0.5,32.8333 -0.5,-0.5 Z"/></g>
<g><path style="opacity:1" fill="#7f7273" d="M 246.5,27.5 C 245.624,27.3691 244.957,27.7025 244.5,28.5C 242.857,33.1398 240.857,37.4732 238.5,41.5C 239.429,36.382 240.762,31.382 242.5,26.5C 243.966,25.653 244.8,24.3197 245,22.5C 246.269,23.9047 246.769,25.5714 246.5,27.5 Z"/></g>
<g><path style="opacity:1" fill="#9a9a9a" d="M 283.5,33.5 C 283.631,34.3764 283.298,35.0431 282.5,35.5C 281.686,33.2338 281.186,30.9005 281,28.5C 280.617,29.056 280.117,29.3893 279.5,29.5C 279.892,27.8211 280.392,26.1545 281,24.5C 281.841,27.6282 282.675,30.6282 283.5,33.5 Z"/></g>
<g><path style="opacity:1" fill="#514645" d="M 247.5,43.5 C 248.412,44.7382 248.579,46.0715 248,47.5C 246.264,50.7392 243.764,53.0726 240.5,54.5C 242.076,51.6884 243.91,49.0217 246,46.5C 246.5,40.1754 246.666,33.8421 246.5,27.5C 246.769,25.5714 246.269,23.9047 245,22.5C 244.8,24.3197 243.966,25.653 242.5,26.5C 243.374,23.0812 244.54,19.7478 246,16.5C 247.414,25.4178 247.914,34.4178 247.5,43.5 Z"/></g>
<g><path style="opacity:1" fill="#d5c1c2" d="M 246.5,27.5 C 246.666,33.8421 246.5,40.1754 246,46.5C 243.91,49.0217 242.076,51.6884 240.5,54.5C 238.833,57.8333 237.167,61.1667 235.5,64.5C 234.632,61.6727 234.632,58.6727 235.5,55.5C 236.094,50.7253 237.094,46.0586 238.5,41.5C 240.857,37.4732 242.857,33.1398 244.5,28.5C 244.957,27.7025 245.624,27.3691 246.5,27.5 Z"/></g>
<g><path style="opacity:1" fill="#a4a0a1" d="M 259.5,42.5 C 259.672,41.5084 259.338,40.8417 258.5,40.5C 258.908,39.3569 259.575,38.3569 260.5,37.5C 261.634,39.4385 261.3,41.1052 259.5,42.5 Z"/></g>
<g><path style="opacity:1" fill="#615e5e" d="M 256.5,40.5 C 254.389,41.7416 252.389,41.7416 250.5,40.5C 251.046,38.6968 251.88,37.0302 253,35.5C 253.333,36.5 253.667,37.5 254,38.5C 255.853,34.6151 257.52,30.6151 259,26.5C 258.919,31.2615 258.085,35.9282 256.5,40.5 Z"/></g>
<g><path style="opacity:1" fill="#74696d" d="M 203.5,35.5 C 203.56,34.9569 203.893,34.6236 204.5,34.5C 205.484,37.4281 205.817,40.4281 205.5,43.5C 204.833,40.8333 204.167,38.1667 203.5,35.5 Z"/></g>
<g><path style="opacity:1" fill="#807e7f" d="M 261.5,43.5 C 261.56,42.9569 261.893,42.6236 262.5,42.5C 263.776,43.6136 263.776,44.6136 262.5,45.5C 262.672,44.5084 262.338,43.8417 261.5,43.5 Z"/></g>
<g><path style="opacity:1" fill="#828182" d="M 274.5,41.5 C 274.372,43.0898 273.705,44.4231 272.5,45.5C 272.239,43.4048 271.906,41.4048 271.5,39.5C 271.369,38.6236 271.702,37.9569 272.5,37.5C 273.172,38.9492 273.839,40.2825 274.5,41.5 Z"/></g>
<g><path style="opacity:1" fill="#887b7c" d="M 251.5,43.5 C 252.209,44.404 253.209,44.7373 254.5,44.5C 253.556,51.7381 254.89,58.4048 258.5,64.5C 257.671,65.3324 256.838,64.999 256,63.5C 253.67,59.6813 252.837,55.6813 253.5,51.5C 253.043,50.7025 252.376,50.3691 251.5,50.5C 250.897,47.9591 250.897,45.6257 251.5,43.5 Z"/></g>
<g><path style="opacity:1" fill="#2c2020" d="M 201.5,49.5 C 202.716,51.8474 202.716,54.3474 201.5,57C 202.01,58.8261 202.844,58.9928 204,57.5C 204.813,59.4357 205.313,61.4357 205.5,63.5C 205.665,66.8499 205.498,70.1832 205,73.5C 204.503,71.1902 204.337,68.8568 204.5,66.5C 204.806,62.3029 202.806,60.3029 198.5,60.5C 198.918,59.7784 199.584,59.2784 200.5,59C 199.383,55.9269 199.216,52.7603 200,49.5C 200.779,52.0972 201.279,52.0972 201.5,49.5 Z"/></g>
<g><path style="opacity:1" fill="#4a3c3b" d="M 235.5,55.5 C 234.632,58.6727 234.632,61.6727 235.5,64.5C 234.77,65.7124 233.77,66.7124 232.5,67.5C 233.949,68.1719 235.282,68.8386 236.5,69.5C 235.022,69.238 233.689,69.5713 232.5,70.5C 230.76,75.2784 229.093,79.9451 227.5,84.5C 227.62,82.2655 227.287,80.0989 226.5,78C 228.667,70.8333 230.833,63.6667 233,56.5C 233.671,55.7476 234.504,55.4142 235.5,55.5 Z"/></g>
<g><path style="opacity:1" fill="#1c1817" d="M 250.5,40.5 C 252.389,41.7416 254.389,41.7416 256.5,40.5C 256.5,40.8333 256.5,41.1667 256.5,41.5C 255.365,43.2132 253.698,43.8799 251.5,43.5C 250.897,45.6257 250.897,47.9591 251.5,50.5C 249.757,51.6409 248.757,53.3076 248.5,55.5C 249.586,60.4882 249.586,65.4882 248.5,70.5C 248.06,68.1561 247.06,66.1561 245.5,64.5C 245.665,61.1501 245.498,57.8168 245,54.5C 239.321,60.1072 238.155,66.4405 241.5,73.5C 241.694,75.9118 243.027,76.9118 245.5,76.5C 245.5,75.5 245.5,74.5 245.5,73.5C 245.5,72.1667 246.167,71.5 247.5,71.5C 247.5,72.8333 247.5,74.1667 247.5,75.5C 246.596,76.209 246.263,77.209 246.5,78.5C 244.708,78.634 243.042,78.3007 241.5,77.5C 239.825,74.755 238.158,72.0883 236.5,69.5C 235.282,68.8386 233.949,68.1719 232.5,67.5C 233.77,66.7124 234.77,65.7124 235.5,64.5C 237.167,61.1667 238.833,57.8333 240.5,54.5C 243.764,53.0726 246.264,50.7392 248,47.5C 248.579,46.0715 248.412,44.7382 247.5,43.5C 248.272,42.3065 249.272,41.3065 250.5,40.5 Z"/></g>
<g><path style="opacity:1" fill="#beb1b2" d="M 203.5,35.5 C 204.167,38.1667 204.833,40.8333 205.5,43.5C 207.155,54.1233 208.489,64.79 209.5,75.5C 208.905,78.1125 208.071,78.1125 207,75.5C 206.824,71.3123 206.324,67.3123 205.5,63.5C 205.313,61.4357 204.813,59.4357 204,57.5C 202.844,58.9928 202.01,58.8261 201.5,57C 202.716,54.3474 202.716,51.8474 201.5,49.5C 202.376,44.868 203.043,40.2014 203.5,35.5 Z"/></g>
<g><path style="opacity:1" fill="#aaaba7" d="M 245.5,64.5 C 245.768,66.099 245.434,67.4324 244.5,68.5C 244.99,63.4932 244.157,62.8265 242,66.5C 241.503,68.8098 241.337,71.1432 241.5,73.5C 238.155,66.4405 239.321,60.1072 245,54.5C 245.498,57.8168 245.665,61.1501 245.5,64.5 Z"/></g>
<g><path style="opacity:1" fill="#ece8e6" d="M 198.5,60.5 C 202.806,60.3029 204.806,62.3029 204.5,66.5C 204.167,66.5 203.833,66.5 203.5,66.5C 203.158,65.6618 202.492,65.3284 201.5,65.5C 200.29,65.9321 199.29,66.5987 198.5,67.5C 195.55,69.1153 192.884,71.1153 190.5,73.5C 188.821,73.7148 187.821,73.0481 187.5,71.5C 190.167,66.8333 193.833,63.1667 198.5,60.5 Z"/></g>
<g><path style="opacity:1" fill="#4a5757" d="M 245.5,64.5 C 247.06,66.1561 248.06,68.1561 248.5,70.5C 248.5,71.1667 248.167,71.5 247.5,71.5C 246.167,71.5 245.5,72.1667 245.5,73.5C 244.549,72.0813 244.216,70.4147 244.5,68.5C 245.434,67.4324 245.768,66.099 245.5,64.5 Z"/></g>
<g><path style="opacity:1" fill="#ced5cf" d="M 244.5,68.5 C 244.216,70.4147 244.549,72.0813 245.5,73.5C 245.5,74.5 245.5,75.5 245.5,76.5C 243.027,76.9118 241.694,75.9118 241.5,73.5C 241.337,71.1432 241.503,68.8098 242,66.5C 244.157,62.8265 244.99,63.4932 244.5,68.5 Z"/></g>
<g><path style="opacity:1" fill="#3f2e2b" d="M 201.5,65.5 C 202.492,65.3284 203.158,65.6618 203.5,66.5C 203.972,69.3579 202.972,71.3579 200.5,72.5C 198.496,73.6728 196.996,75.3395 196,77.5C 195.177,73.8008 196.677,71.4675 200.5,70.5C 201.452,68.9547 201.785,67.288 201.5,65.5 Z"/></g>
<g><path style="opacity:1" fill="#827670" d="M 198.5,67.5 C 198.938,67.4346 199.272,67.6012 199.5,68C 196.308,70.0282 193.641,72.5282 191.5,75.5C 191.5,74.8333 191.167,74.5 190.5,74.5C 190.5,74.1667 190.5,73.8333 190.5,73.5C 192.884,71.1153 195.55,69.1153 198.5,67.5 Z"/></g>
<g><path style="opacity:1" fill="#847976" d="M 267.5,71.5 C 267.778,76.339 267.112,81.0056 265.5,85.5C 264.833,86.1667 264.167,86.8333 263.5,87.5C 264.416,81.9487 265.75,76.6154 267.5,71.5 Z"/></g>
<g><path style="opacity:1" fill="#281b19" d="M 190.5,74.5 C 191.167,74.5 191.5,74.8333 191.5,75.5C 190.89,76.391 190.557,77.391 190.5,78.5C 189.833,81.1667 189.167,83.8333 188.5,86.5C 186.795,82.0649 187.461,78.0649 190.5,74.5 Z"/></g>
<g><path style="opacity:1" fill="#473430" d="M 202.5,73.5 C 203.167,73.5 203.5,73.8333 203.5,74.5C 201.269,80.7003 200.936,87.0337 202.5,93.5C 198.317,93.65 195.984,91.65 195.5,87.5C 196.782,82.2699 199.115,77.6032 202.5,73.5 Z"/></g>
<g><path style="opacity:1" fill="#6e6260" d="M 205.5,63.5 C 206.324,67.3123 206.824,71.3123 207,75.5C 208.071,78.1125 208.905,78.1125 209.5,75.5C 210.887,77.8766 211.721,80.5432 212,83.5C 212.699,89.4888 213.199,95.4888 213.5,101.5C 211.883,97.4604 211.05,93.1271 211,88.5C 209.082,85.4166 207.749,82.0833 207,78.5C 206.26,76.6813 205.093,75.3479 203.5,74.5C 203.5,73.8333 203.167,73.5 202.5,73.5C 202.158,72.6618 201.492,72.3284 200.5,72.5C 202.972,71.3579 203.972,69.3579 203.5,66.5C 203.833,66.5 204.167,66.5 204.5,66.5C 204.337,68.8568 204.503,71.1902 205,73.5C 205.498,70.1832 205.665,66.8499 205.5,63.5 Z"/></g>
<g><path style="opacity:1" fill="#af8a88" d="M 236.5,69.5 C 238.158,72.0883 239.825,74.755 241.5,77.5C 241.666,81.5138 241.499,85.5138 241,89.5C 240.586,89.0426 240.086,88.7093 239.5,88.5C 237.291,89.1062 235.124,89.7728 233,90.5C 230.078,84.5321 228.578,84.5321 228.5,90.5C 227.539,88.7354 227.205,86.7354 227.5,84.5C 229.093,79.9451 230.76,75.2784 232.5,70.5C 233.689,69.5713 235.022,69.238 236.5,69.5 Z"/></g>
<g><path style="opacity:1" fill="#65524e" d="M 190.5,78.5 C 190.335,81.8499 190.502,85.1832 191,88.5C 194.036,90.4915 195.703,93.1581 196,96.5C 194.595,95.2695 193.429,93.9361 192.5,92.5C 190.571,90.9402 189.238,88.9402 188.5,86.5C 189.167,83.8333 189.833,81.1667 190.5,78.5 Z"/></g>
<g><path style="opacity:1" fill="#b3a3a3" d="M 187.5,71.5 C 187.821,73.0481 188.821,73.7148 190.5,73.5C 190.5,73.8333 190.5,74.1667 190.5,74.5C 187.461,78.0649 186.795,82.0649 188.5,86.5C 189.238,88.9402 190.571,90.9402 192.5,92.5C 191.549,93.9187 191.216,95.5853 191.5,97.5C 189.196,94.3419 187.03,91.0085 185,87.5C 184.333,83.5 184.333,79.5 185,75.5C 185.608,73.9336 186.442,72.6002 187.5,71.5 Z"/></g>
<g><path style="opacity:1" fill="#c5a6a3" d="M 247.5,75.5 C 247.5,80.8333 247.5,86.1667 247.5,91.5C 246.5,91.5 245.5,91.5 244.5,91.5C 244.719,92.675 244.386,93.675 243.5,94.5C 240.919,94.1207 238.419,94.7874 236,96.5C 235.505,98.4727 235.338,100.473 235.5,102.5C 234.167,102.5 232.833,102.5 231.5,102.5C 231.649,101.448 231.483,100.448 231,99.5C 230.503,101.81 230.337,104.143 230.5,106.5C 229.194,101.384 228.527,96.0506 228.5,90.5C 228.578,84.5321 230.078,84.5321 233,90.5C 235.124,89.7728 237.291,89.1062 239.5,88.5C 240.086,88.7093 240.586,89.0426 241,89.5C 241.499,85.5138 241.666,81.5138 241.5,77.5C 243.042,78.3007 244.708,78.634 246.5,78.5C 246.263,77.209 246.596,76.209 247.5,75.5 Z"/></g>
<g><path style="opacity:1" fill="#6f6f6f" d="M 7.5,94.5 C 7.5,95.8333 7.5,97.1667 7.5,98.5C 6.52693,100.948 6.1936,103.615 6.5,106.5C 5.83798,104.696 5.50465,102.696 5.5,100.5C 5.53907,98.0478 6.20574,96.0478 7.5,94.5 Z"/></g>
<g><path style="opacity:1" fill="#727272" d="M 23.5,103.5 C 22.6618,103.842 22.3284,104.508 22.5,105.5C 21.3775,103.712 21.2109,101.712 22,99.5C 23.1882,100.563 23.6882,101.897 23.5,103.5 Z"/></g>
<g><path style="opacity:1" fill="#9e918c" d="M 261.5,92.5 C 258.867,99.0145 256.534,105.681 254.5,112.5C 253.957,112.44 253.624,112.107 253.5,111.5C 254.861,104.464 257.528,98.1306 261.5,92.5 Z"/></g>
<g><path style="opacity:1" fill="#d8c4c1" d="M 201.5,65.5 C 201.785,67.288 201.452,68.9547 200.5,70.5C 196.677,71.4675 195.177,73.8008 196,77.5C 196.996,75.3395 198.496,73.6728 200.5,72.5C 201.492,72.3284 202.158,72.6618 202.5,73.5C 199.115,77.6032 196.782,82.2699 195.5,87.5C 195.984,91.65 198.317,93.65 202.5,93.5C 200.936,87.0337 201.269,80.7003 203.5,74.5C 205.093,75.3479 206.26,76.6813 207,78.5C 207.749,82.0833 209.082,85.4166 211,88.5C 211.05,93.1271 211.883,97.4604 213.5,101.5C 215.524,111.929 218.024,122.262 221,132.5C 222.33,137.368 224.496,141.701 227.5,145.5C 228.11,147.434 229.11,149.101 230.5,150.5C 231.043,150.56 231.376,150.893 231.5,151.5C 227.526,152.541 223.859,151.707 220.5,149C 209.23,140.228 202.897,128.728 201.5,114.5C 201.821,112.952 202.821,112.285 204.5,112.5C 204.328,113.492 204.662,114.158 205.5,114.5C 205.533,117.097 206.533,118.097 208.5,117.5C 207.972,115.664 207.306,113.997 206.5,112.5C 205.432,109.182 205.265,105.849 206,102.5C 205.098,104.431 203.931,106.097 202.5,107.5C 201.833,107.5 201.167,107.5 200.5,107.5C 197.5,104.167 194.5,100.833 191.5,97.5C 191.216,95.5853 191.549,93.9187 192.5,92.5C 193.429,93.9361 194.595,95.2695 196,96.5C 195.703,93.1581 194.036,90.4915 191,88.5C 190.502,85.1832 190.335,81.8499 190.5,78.5C 190.557,77.391 190.89,76.391 191.5,75.5C 193.641,72.5282 196.308,70.0282 199.5,68C 199.272,67.6012 198.938,67.4346 198.5,67.5C 199.29,66.5987 200.29,65.9321 201.5,65.5 Z"/></g>
<g><path style="opacity:1" fill="#2e1d1c" d="M 206.5,112.5 C 206.672,113.492 206.338,114.158 205.5,114.5C 204.662,114.158 204.328,113.492 204.5,112.5C 204.169,110.678 203.502,109.011 202.5,107.5C 203.931,106.097 205.098,104.431 206,102.5C 205.265,105.849 205.432,109.182 206.5,112.5 Z"/></g>
<g><path style="opacity:1" fill="#7b7b7b" d="M 10.5,101.5 C 12.1667,106.167 13.8333,110.833 15.5,115.5C 12.4684,111.946 10.4684,107.78 9.5,103C 9.56993,102.235 9.90326,101.735 10.5,101.5 Z"/></g>
<g><path style="opacity:1" fill="#756866" d="M 200.5,107.5 C 201.167,107.5 201.833,107.5 202.5,107.5C 203.502,109.011 204.169,110.678 204.5,112.5C 202.821,112.285 201.821,112.952 201.5,114.5C 200.532,112.393 200.198,110.059 200.5,107.5 Z"/></g>
<g><path style="opacity:1" fill="#3a3a3a" d="M 7.5,94.5 C 9.11284,96.4605 10.1128,98.7939 10.5,101.5C 9.90326,101.735 9.56993,102.235 9.5,103C 10.4684,107.78 12.4684,111.946 15.5,115.5C 16.625,116.348 16.625,117.348 15.5,118.5C 10.6995,112.781 8.03284,106.114 7.5,98.5C 7.5,97.1667 7.5,95.8333 7.5,94.5 Z"/></g>
<g><path style="opacity:1" fill="#585455" d="M 30.5,118.5 C 30.5386,119.756 30.0386,120.756 29,121.5C 28.5038,119.965 28.6705,118.465 29.5,117C 28.9561,115.415 28.2894,113.915 27.5,112.5C 28.1174,112.389 28.6174,112.056 29,111.5C 31.7607,113.33 32.2607,115.663 30.5,118.5 Z"/></g>
<g><path style="opacity:1" fill="#797878" d="M 51.5,105.5 C 53.7645,105.441 54.0978,106.274 52.5,108C 53.6524,111.306 55.319,114.306 57.5,117C 54.8363,115.671 52.6696,113.505 51,110.5C 50.3603,108.735 50.5269,107.068 51.5,105.5 Z"/></g>
<g><path style="opacity:1" fill="#221b1b" d="M 230.5,108.5 C 233.199,116.276 235.532,124.276 237.5,132.5C 234.45,133.077 232.45,131.91 231.5,129C 232.512,127.357 233.512,126.19 234.5,125.5C 232.667,124.739 231.333,122.905 230.5,120C 230.719,116.318 230.719,112.484 230.5,108.5 Z"/></g>
<g><path style="opacity:1" fill="#826e6a" d="M 206.5,112.5 C 207.306,113.997 207.972,115.664 208.5,117.5C 206.533,118.097 205.533,117.097 205.5,114.5C 206.338,114.158 206.672,113.492 206.5,112.5 Z"/></g>
<g><path style="opacity:1" fill="#c8c8c8" d="M 4.5,81.5 C 4.19895,93.2058 4.69895,104.873 6,116.5C 7.60519,120.485 9.10519,124.485 10.5,128.5C 7.49852,135.796 8.33185,142.796 13,149.5C 13.3826,148.944 13.8826,148.611 14.5,148.5C 14.7373,149.791 14.404,150.791 13.5,151.5C 12.5416,151.953 11.7083,152.619 11,153.5C 5.18695,144.802 2.52029,135.136 3,124.5C 2.12486,121.599 0.95819,118.932 -0.5,116.5C -0.5,110.833 -0.5,105.167 -0.5,99.5C 1.09307,100.348 2.25974,101.681 3,103.5C 3.17121,95.9885 3.67121,88.6552 4.5,81.5 Z"/></g>
<g><path style="opacity:1" fill="#ddc6c2" d="M 251.5,50.5 C 252.376,50.3691 253.043,50.7025 253.5,51.5C 252.837,55.6813 253.67,59.6813 256,63.5C 256.838,64.999 257.671,65.3324 258.5,64.5C 259.657,67.2727 260.324,70.2727 260.5,73.5C 262.167,73.5 263.833,73.5 265.5,73.5C 265.281,72.325 265.614,71.325 266.5,70.5C 267.107,70.6236 267.44,70.9569 267.5,71.5C 265.75,76.6154 264.416,81.9487 263.5,87.5C 263.598,89.5529 262.931,91.2196 261.5,92.5C 257.528,98.1306 254.861,104.464 253.5,111.5C 253.624,112.107 253.957,112.44 254.5,112.5C 252.413,116.344 250.08,120.011 247.5,123.5C 247.565,123.062 247.399,122.728 247,122.5C 244.425,125.319 242.092,128.319 240,131.5C 239.472,132.816 239.972,133.483 241.5,133.5C 239.925,135.114 239.259,137.114 239.5,139.5C 238.593,137.343 237.927,135.01 237.5,132.5C 235.532,124.276 233.199,116.276 230.5,108.5C 230.5,107.833 230.5,107.167 230.5,106.5C 230.337,104.143 230.503,101.81 231,99.5C 231.483,100.448 231.649,101.448 231.5,102.5C 232.833,102.5 234.167,102.5 235.5,102.5C 235.338,100.473 235.505,98.4727 236,96.5C 238.419,94.7874 240.919,94.1207 243.5,94.5C 244.386,93.675 244.719,92.675 244.5,91.5C 245.5,91.5 246.5,91.5 247.5,91.5C 247.5,86.1667 247.5,80.8333 247.5,75.5C 247.5,74.1667 247.5,72.8333 247.5,71.5C 248.167,71.5 248.5,71.1667 248.5,70.5C 249.586,65.4882 249.586,60.4882 248.5,55.5C 248.757,53.3076 249.757,51.6409 251.5,50.5 Z"/></g>
<g><path style="opacity:1" fill="#2c1b17" d="M 246.5,112.5 C 247.376,112.369 248.043,112.702 248.5,113.5C 244.703,118.699 244.036,118.366 246.5,112.5 Z"/></g>
<g><path style="opacity:1" fill="#584b50" d="M 37.5,121.5 C 35.5659,120.89 33.8993,119.89 32.5,118.5C 32.5173,116.972 33.184,116.472 34.5,117C 36.1412,118.129 37.1412,119.629 37.5,121.5 Z"/></g>
<g><path style="opacity:1" fill="#efefef" d="M 7.5,98.5 C 8.03284,106.114 10.6995,112.781 15.5,118.5C 18.1667,121.5 20.8333,124.5 23.5,127.5C 23.6107,128.117 23.944,128.617 24.5,129C 22.6227,131.251 21.1227,133.751 20,136.5C 19.6174,135.944 19.1174,135.611 18.5,135.5C 18.0269,134.094 17.0269,133.427 15.5,133.5C 10.5158,125.258 7.51577,116.258 6.5,106.5C 6.1936,103.615 6.52693,100.948 7.5,98.5 Z"/></g>
<g><path style="opacity:1" fill="#f6dce4" d="M 23.5,103.5 C 24.8266,106.471 26.1599,109.471 27.5,112.5C 28.2894,113.915 28.9561,115.415 29.5,117C 28.6705,118.465 28.5038,119.965 29,121.5C 30.0386,120.756 30.5386,119.756 30.5,118.5C 31.1667,118.5 31.8333,118.5 32.5,118.5C 33.8993,119.89 35.5659,120.89 37.5,121.5C 39.5,122.167 41.5,122.833 43.5,123.5C 39.521,128.462 36.8543,134.129 35.5,140.5C 33.5988,142.732 33.2655,145.232 34.5,148C 34.3893,149.722 33.8893,149.888 33,148.5C 32.6076,145.812 32.1076,143.145 31.5,140.5C 31.7424,138.392 32.0758,136.225 32.5,134C 32.2409,132.739 31.5742,131.739 30.5,131C 31.8333,129.333 31.8333,127.667 30.5,126C 29.5165,125.409 28.8499,125.743 28.5,127C 27.7203,131.523 25.5537,135.69 22,139.5C 21,142.833 20,146.167 19,149.5C 18.2588,148.359 17.4255,148.359 16.5,149.5C 12.7087,158.515 9.04204,167.515 5.5,176.5C 6.69372,179.03 7.36038,181.363 7.5,183.5C 6.28749,184.497 6.45415,185.497 8,186.5C 8.66667,189.167 8.66667,191.833 8,194.5C 5.91426,203.876 3.08093,212.876 -0.5,221.5C -0.5,208.5 -0.5,195.5 -0.5,182.5C 3.35174,174.787 6.68507,166.787 9.5,158.5C 10.9063,158.027 11.573,157.027 11.5,155.5C 12.6737,154.486 13.3404,153.153 13.5,151.5C 14.404,150.791 14.7373,149.791 14.5,148.5C 15.8543,145.274 17.521,142.107 19.5,139C 18.7476,138.329 18.4142,137.496 18.5,136.5C 18.5,136.167 18.5,135.833 18.5,135.5C 19.1174,135.611 19.6174,135.944 20,136.5C 21.1227,133.751 22.6227,131.251 24.5,129C 23.944,128.617 23.6107,128.117 23.5,127.5C 25.7224,127.441 26.7224,126.275 26.5,124C 24.3347,118.007 23.0014,111.84 22.5,105.5C 22.3284,104.508 22.6618,103.842 23.5,103.5 Z"/></g>
<g><path style="opacity:1" fill="#f4f3f2" d="M 265.5,85.5 C 265.574,87.4109 266.574,88.5776 268.5,89C 266.697,89.6368 265.364,90.8035 264.5,92.5C 265.025,93.1924 265.692,93.6924 266.5,94C 264.686,96.4815 264.02,99.3148 264.5,102.5C 263.448,102.351 262.448,102.517 261.5,103C 262.253,104.487 263.086,104.654 264,103.5C 264.785,105.286 265.951,106.786 267.5,108C 272.5,109 277.5,110 282.5,111C 283.973,111.71 284.64,112.876 284.5,114.5C 289.5,114.5 294.5,114.5 299.5,114.5C 299.5,131.167 299.5,147.833 299.5,164.5C 297.305,165.608 295.305,165.441 293.5,164C 293.093,158.503 291.259,157.67 288,161.5C 287.692,160.692 287.192,160.025 286.5,159.5C 285.667,160.5 284.833,161.5 284,162.5C 283.32,155.502 281.487,154.669 278.5,160C 279.821,161.545 279.488,162.711 277.5,163.5C 275.31,162.252 274.977,160.586 276.5,158.5C 276.113,157.28 275.28,156.613 274,156.5C 267.691,158.754 261.358,158.754 255,156.5C 252.167,156.667 249.333,156.833 246.5,157C 247.61,159.737 247.777,162.571 247,165.5C 246.802,163.618 246.302,161.952 245.5,160.5C 244.676,153.699 242.676,147.365 239.5,141.5C 239.5,140.833 239.5,140.167 239.5,139.5C 239.259,137.114 239.925,135.114 241.5,133.5C 242.986,129.863 244.986,126.53 247.5,123.5C 250.08,120.011 252.413,116.344 254.5,112.5C 256.534,105.681 258.867,99.0145 261.5,92.5C 262.931,91.2196 263.598,89.5529 263.5,87.5C 264.167,86.8333 264.833,86.1667 265.5,85.5 Z"/></g>
<g><path style="opacity:1" fill="#8b7f7c" d="M 247.5,123.5 C 244.986,126.53 242.986,129.863 241.5,133.5C 239.972,133.483 239.472,132.816 240,131.5C 242.092,128.319 244.425,125.319 247,122.5C 247.399,122.728 247.565,123.062 247.5,123.5 Z"/></g>
<g><path style="opacity:1" fill="#f7f6f6" d="M 10.5,128.5 C 11.806,130.473 13.4727,132.139 15.5,133.5C 16.1667,134.833 17.1667,135.833 18.5,136.5C 18.4142,137.496 18.7476,138.329 19.5,139C 17.521,142.107 15.8543,145.274 14.5,148.5C 13.8826,148.611 13.3826,148.944 13,149.5C 8.33185,142.796 7.49852,135.796 10.5,128.5 Z"/></g>
<g><path style="opacity:1" fill="#fddae5" d="M 35.5,140.5 C 35.5,141.5 35.5,142.5 35.5,143.5C 39.8955,141.958 44.2288,140.458 48.5,139C 50.7676,140.558 51.9343,142.724 52,145.5C 52.3357,150.532 52.8357,155.532 53.5,160.5C 54.8221,160.33 55.9887,160.663 57,161.5C 57.4461,164.343 57.9461,167.176 58.5,170C 60.3973,172.448 62.064,175.115 63.5,178C 68.4889,178.499 73.4889,178.666 78.5,178.5C 78.5,179.5 78.5,180.5 78.5,181.5C 81.4552,182.159 84.4552,182.492 87.5,182.5C 87.5,184.833 87.5,187.167 87.5,189.5C 97.1064,189.508 106.44,188.008 115.5,185C 116.634,183.984 116.301,183.317 114.5,183C 116.134,182.506 117.801,182.34 119.5,182.5C 120.742,183.043 122.075,183.377 123.5,183.5C 134.473,181.806 145.473,180.473 156.5,179.5C 167.34,180.64 178.007,182.64 188.5,185.5C 192.469,187.484 196.469,189.484 200.5,191.5C 202.735,192.228 204.568,193.561 206,195.5C 206.278,194.584 206.778,193.918 207.5,193.5C 207.491,195.308 207.991,196.975 209,198.5C 213.611,203.25 217.277,208.584 220,214.5C 221.011,215.337 222.178,215.67 223.5,215.5C 226.056,222.328 226.889,221.994 226,214.5C 225.308,213.975 224.808,213.308 224.5,212.5C 225.557,212.094 226.891,212.094 228.5,212.5C 227.737,215.141 227.57,217.808 228,220.5C 228.671,221.252 229.504,221.586 230.5,221.5C 229.833,222.5 229.167,223.5 228.5,224.5C 227.957,224.56 227.624,224.893 227.5,225.5C 227.957,227.598 228.957,229.264 230.5,230.5C 231.827,236.314 233.66,241.981 236,247.5C 237.043,250.757 237.543,254.09 237.5,257.5C 234.1,264.687 236.1,269.353 243.5,271.5C 244.167,272.833 245.167,273.833 246.5,274.5C 246.427,276.027 247.094,277.027 248.5,277.5C 249.261,284.817 249.928,292.15 250.5,299.5C 193.833,299.5 137.167,299.5 80.5,299.5C 82.2563,295.727 83.2563,291.727 83.5,287.5C 92.2333,287.762 96.2333,283.428 95.5,274.5C 94.1205,265.074 90.1205,257.074 83.5,250.5C 81.8639,251.749 80.6972,253.416 80,255.5C 74.1214,270.307 67.9548,284.973 61.5,299.5C 40.8333,299.5 20.1667,299.5 -0.5,299.5C -0.5,275.167 -0.5,250.833 -0.5,226.5C 3.4622,216.87 6.62886,206.87 9,196.5C 9.66667,192.5 9.66667,188.5 9,184.5C 8.61742,183.944 8.11742,183.611 7.5,183.5C 7.36038,181.363 6.69372,179.03 5.5,176.5C 9.04204,167.515 12.7087,158.515 16.5,149.5C 17.4255,148.359 18.2588,148.359 19,149.5C 20,146.167 21,142.833 22,139.5C 25.5537,135.69 27.7203,131.523 28.5,127C 28.8499,125.743 29.5165,125.409 30.5,126C 31.8333,127.667 31.8333,129.333 30.5,131C 31.5742,131.739 32.2409,132.739 32.5,134C 32.0758,136.225 31.7424,138.392 31.5,140.5C 32.1076,143.145 32.6076,145.812 33,148.5C 33.8893,149.888 34.3893,149.722 34.5,148C 33.2655,145.232 33.5988,142.732 35.5,140.5 Z"/></g>
<g><path style="opacity:1" fill="#a09fa0" d="M -0.5,116.5 C 0.95819,118.932 2.12486,121.599 3,124.5C 2.52029,135.136 5.18695,144.802 11,153.5C 11.7083,152.619 12.5416,151.953 13.5,151.5C 13.3404,153.153 12.6737,154.486 11.5,155.5C 11.5654,155.062 11.3988,154.728 11,154.5C 10.2817,157.234 8.78165,157.9 6.5,156.5C 3.53808,148.595 1.20475,140.595 -0.5,132.5C -0.5,127.167 -0.5,121.833 -0.5,116.5 Z"/></g>
<g><path style="opacity:1" fill="#767475" d="M 15.5,133.5 C 17.0269,133.427 18.0269,134.094 18.5,135.5C 18.5,135.833 18.5,136.167 18.5,136.5C 17.1667,135.833 16.1667,134.833 15.5,133.5 Z"/></g>
<g><path style="opacity:1" fill="#746b6e" d="M 72.5,134.5 C 72.56,133.957 72.8933,133.624 73.5,133.5C 77.633,135.802 81.633,138.302 85.5,141C 80.4253,140.451 76.092,138.284 72.5,134.5 Z"/></g>
<g><path style="opacity:1" fill="#6a6361" d="M 173.5,124.5 C 177.97,129.813 182.303,135.313 186.5,141C 178.74,138.387 174.406,132.887 173.5,124.5 Z"/></g>
<g><path style="opacity:1" fill="#4b4343" d="M 230.5,150.5 C 229.11,149.101 228.11,147.434 227.5,145.5C 227.076,142.646 226.076,139.979 224.5,137.5C 224.846,136.304 225.346,136.304 226,137.5C 227.413,140.661 229.08,143.661 231,146.5C 231.579,147.928 231.412,149.262 230.5,150.5 Z"/></g>
<g><path style="opacity:1" fill="#ae99a0" d="M 56.5,125.5 C 58.2884,124.378 60.2884,124.211 62.5,125C 70.1285,136.662 80.7952,144.162 94.5,147.5C 84.0988,150.052 73.4321,149.885 62.5,147C 59.9698,146.109 57.6365,144.942 55.5,143.5C 54.7321,142.737 54.2321,141.737 54,140.5C 53.501,136.179 53.3343,131.846 53.5,127.5C 56.0728,127.852 58.4062,127.352 60.5,126C 59.2068,125.51 57.8734,125.343 56.5,125.5 Z"/></g>
<g><path style="opacity:1" fill="#5b5758" d="M 208.5,143.5 C 207.833,143.5 207.5,143.833 207.5,144.5C 206.521,143.235 205.521,141.901 204.5,140.5C 204.833,140.167 205.167,139.833 205.5,139.5C 206.524,140.852 207.524,142.185 208.5,143.5 Z"/></g>
<g><path style="opacity:1" fill="#baafb0" d="M 187.5,145.5 C 184.865,146.473 182.865,148.14 181.5,150.5C 180.094,147.475 178.761,144.308 177.5,141C 177.833,140.5 178.167,140 178.5,139.5C 181.535,141.55 184.535,143.55 187.5,145.5 Z"/></g>
<g><path style="opacity:1" fill="#faf7f7" d="M 208.5,143.5 C 216.1,149.801 224.767,153.634 234.5,155C 237.654,161.822 242.32,167.322 248.5,171.5C 260.409,175.086 272.076,179.586 283.5,185C 287.907,188.227 290.907,192.394 292.5,197.5C 292.631,198.376 292.298,199.043 291.5,199.5C 287.06,198.265 282.56,197.265 278,196.5C 274.831,196.345 271.831,197.012 269,198.5C 268.667,198.167 268.333,197.833 268,197.5C 260.852,201.654 253.685,205.654 246.5,209.5C 249.29,210.967 250.956,213.3 251.5,216.5C 251.073,220.824 250.739,225.158 250.5,229.5C 246.983,227.654 243.316,225.987 239.5,224.5C 237.085,224.719 236.085,226.052 236.5,228.5C 232.517,229.428 229.85,228.095 228.5,224.5C 229.167,223.5 229.833,222.5 230.5,221.5C 230.666,217.154 230.499,212.821 230,208.5C 229.209,209.745 228.709,211.078 228.5,212.5C 226.891,212.094 225.557,212.094 224.5,212.5C 224.808,213.308 225.308,213.975 226,214.5C 226.889,221.994 226.056,222.328 223.5,215.5C 222.178,215.67 221.011,215.337 220,214.5C 217.277,208.584 213.611,203.25 209,198.5C 207.991,196.975 207.491,195.308 207.5,193.5C 207.611,191.352 206.944,191.019 205.5,192.5C 204.148,191.476 202.815,190.476 201.5,189.5C 195.5,184.167 189.833,178.5 184.5,172.5C 182.372,169.87 180.039,167.37 177.5,165C 177.728,164.601 178.062,164.435 178.5,164.5C 183.773,165.273 186.94,168.273 188,173.5C 188.333,172.167 188.667,170.833 189,169.5C 190.636,171.898 192.802,173.065 195.5,173C 193.627,171.296 191.96,169.463 190.5,167.5C 192.678,168.929 195.011,169.763 197.5,170C 195.478,167.991 193.145,166.491 190.5,165.5C 185.74,161.662 182.74,156.662 181.5,150.5C 182.865,148.14 184.865,146.473 187.5,145.5C 196.727,150.946 206.393,155.613 216.5,159.5C 217.5,159.333 218.5,159.167 219.5,159C 214.51,154.856 210.51,150.023 207.5,144.5C 207.5,143.833 207.833,143.5 208.5,143.5 Z"/></g>
<g><path style="opacity:1" fill="#393133" d="M 97.5,148.5 C 104.13,149.014 110.797,149.18 117.5,149C 117.833,149.333 118.167,149.667 118.5,150C 115.167,150.333 111.833,150.667 108.5,151C 113.351,151.174 118.018,151.674 122.5,152.5C 118.486,152.334 114.486,152.501 110.5,153C 114.824,153.87 119.158,154.703 123.5,155.5C 117.346,156.539 111.346,155.872 105.5,153.5C 102.833,151.833 100.167,150.167 97.5,148.5 Z"/></g>
<g><path style="opacity:1" fill="#867078" d="M 55.5,143.5 C 57.6365,144.942 59.9698,146.109 62.5,147C 73.4321,149.885 84.0988,150.052 94.5,147.5C 95.609,147.557 96.609,147.89 97.5,148.5C 100.167,150.167 102.833,151.833 105.5,153.5C 102.167,153.5 98.8333,153.5 95.5,153.5C 82.4065,152.472 69.4065,150.305 56.5,147C 55.6634,145.989 55.33,144.822 55.5,143.5 Z"/></g>
<g><path style="opacity:1" fill="#838383" d="M -0.5,132.5 C 1.20475,140.595 3.53808,148.595 6.5,156.5C 8.78165,157.9 10.2817,157.234 11,154.5C 11.3988,154.728 11.5654,155.062 11.5,155.5C 11.573,157.027 10.9063,158.027 9.5,158.5C 5.63942,164.888 2.30609,171.554 -0.5,178.5C -0.5,163.167 -0.5,147.833 -0.5,132.5 Z"/></g>
<g><path style="opacity:1" fill="#cfb4bd" d="M 43.5,123.5 C 47.6613,125.063 51.9946,125.729 56.5,125.5C 57.8734,125.343 59.2068,125.51 60.5,126C 58.4062,127.352 56.0728,127.852 53.5,127.5C 53.3343,131.846 53.501,136.179 54,140.5C 54.2321,141.737 54.7321,142.737 55.5,143.5C 55.33,144.822 55.6634,145.989 56.5,147C 69.4065,150.305 82.4065,152.472 95.5,153.5C 95.3573,155.262 95.6906,156.929 96.5,158.5C 95.8291,159.946 94.6624,160.612 93,160.5C 86.5241,159.766 80.0241,159.266 73.5,159C 68.889,156.244 63.889,155.077 58.5,155.5C 58.7783,161.234 60.1116,166.567 62.5,171.5C 69.0228,169.237 75.6895,167.571 82.5,166.5C 84.7224,166.178 86.5557,166.845 88,168.5C 88.3333,168.167 88.6667,167.833 89,167.5C 89.8249,169.701 89.3249,171.534 87.5,173C 88.435,175.381 88.7683,177.881 88.5,180.5C 92.6961,180.342 94.8628,182.342 95,186.5C 97.7405,185.718 100.574,185.218 103.5,185C 105.248,183.13 107.415,181.963 110,181.5C 110.333,182.167 110.667,182.833 111,183.5C 112.18,182.316 113.68,181.649 115.5,181.5C 117.045,181.511 118.378,181.844 119.5,182.5C 117.801,182.34 116.134,182.506 114.5,183C 116.301,183.317 116.634,183.984 115.5,185C 106.44,188.008 97.1064,189.508 87.5,189.5C 87.5,187.167 87.5,184.833 87.5,182.5C 84.4552,182.492 81.4552,182.159 78.5,181.5C 78.5,180.5 78.5,179.5 78.5,178.5C 73.4889,178.666 68.4889,178.499 63.5,178C 62.064,175.115 60.3973,172.448 58.5,170C 57.9461,167.176 57.4461,164.343 57,161.5C 55.9887,160.663 54.8221,160.33 53.5,160.5C 52.8357,155.532 52.3357,150.532 52,145.5C 51.9343,142.724 50.7676,140.558 48.5,139C 44.2288,140.458 39.8955,141.958 35.5,143.5C 35.5,142.5 35.5,141.5 35.5,140.5C 36.8543,134.129 39.521,128.462 43.5,123.5 Z"/></g>
<g><path style="opacity:1" fill="#dfddde" d="M 243.5,159.5 C 243.737,160.791 243.404,161.791 242.5,162.5C 241.5,160.5 240.5,158.5 239.5,156.5C 239.335,153.15 239.502,149.817 240,146.5C 241.684,150.716 242.851,155.049 243.5,159.5 Z"/></g>
<g><path style="opacity:1" fill="#756f71" d="M 148.5,157.5 C 146.971,158.347 145.304,159.014 143.5,159.5C 142.274,159.48 141.274,159.147 140.5,158.5C 141.873,158.657 143.207,158.49 144.5,158C 138.178,156.672 132.511,154.005 127.5,150C 128,149.833 128.5,149.667 129,149.5C 135.299,152.907 141.799,155.574 148.5,157.5 Z"/></g>
<g><path style="opacity:1" fill="#eae9e9" d="M 299.5,164.5 C 299.5,178.833 299.5,193.167 299.5,207.5C 296.697,199.733 292.697,192.567 287.5,186C 275.64,179.026 262.973,173.859 249.5,170.5C 247.833,169.5 246.5,168.167 245.5,166.5C 245.5,165.5 245.5,164.5 245.5,163.5C 245.5,162.5 245.5,161.5 245.5,160.5C 246.302,161.952 246.802,163.618 247,165.5C 247.777,162.571 247.61,159.737 246.5,157C 249.333,156.833 252.167,156.667 255,156.5C 261.358,158.754 267.691,158.754 274,156.5C 275.28,156.613 276.113,157.28 276.5,158.5C 274.977,160.586 275.31,162.252 277.5,163.5C 279.488,162.711 279.821,161.545 278.5,160C 281.487,154.669 283.32,155.502 284,162.5C 284.833,161.5 285.667,160.5 286.5,159.5C 287.192,160.025 287.692,160.692 288,161.5C 291.259,157.67 293.093,158.503 293.5,164C 295.305,165.441 297.305,165.608 299.5,164.5 Z"/></g>
<g><path style="opacity:1" fill="#353435" d="M 239.5,141.5 C 242.676,147.365 244.676,153.699 245.5,160.5C 245.5,161.5 245.5,162.5 245.5,163.5C 244.833,162.167 244.167,160.833 243.5,159.5C 242.851,155.049 241.684,150.716 240,146.5C 239.502,149.817 239.335,153.15 239.5,156.5C 238.309,151.645 238.309,146.645 239.5,141.5 Z"/></g>
<g><path style="opacity:1" fill="#aa969d" d="M 148.5,157.5 C 155.754,158.866 163.088,159.7 170.5,160C 171.705,161.376 173.038,162.542 174.5,163.5C 174.5,163.833 174.5,164.167 174.5,164.5C 168.711,164.61 162.711,164.61 156.5,164.5C 156.5,165.5 156.5,166.5 156.5,167.5C 147.159,166.914 138.159,164.914 129.5,161.5C 132.477,161.098 135.143,160.098 137.5,158.5C 138.5,158.5 139.5,158.5 140.5,158.5C 141.274,159.147 142.274,159.48 143.5,159.5C 145.304,159.014 146.971,158.347 148.5,157.5 Z"/></g>
<g><path style="opacity:1" fill="#7e6970" d="M 137.5,158.5 C 135.143,160.098 132.477,161.098 129.5,161.5C 123.5,161.5 117.5,161.5 111.5,161.5C 109.833,161.5 108.167,161.5 106.5,161.5C 114.167,160.167 121.833,158.833 129.5,157.5C 131.305,158.909 133.305,159.409 135.5,159C 134.167,158.333 132.833,157.667 131.5,157C 133.881,156.262 135.881,156.762 137.5,158.5 Z"/></g>
<g><path style="opacity:1" fill="#ab949c" d="M 122.5,152.5 C 125.009,153.921 127.343,155.588 129.5,157.5C 121.833,158.833 114.167,160.167 106.5,161.5C 98.2233,162.384 90.2233,164.05 82.5,166.5C 75.6895,167.571 69.0228,169.237 62.5,171.5C 60.1116,166.567 58.7783,161.234 58.5,155.5C 63.889,155.077 68.889,156.244 73.5,159C 80.0241,159.266 86.5241,159.766 93,160.5C 94.6624,160.612 95.8291,159.946 96.5,158.5C 95.6906,156.929 95.3573,155.262 95.5,153.5C 98.8333,153.5 102.167,153.5 105.5,153.5C 111.346,155.872 117.346,156.539 123.5,155.5C 119.158,154.703 114.824,153.87 110.5,153C 114.486,152.501 118.486,152.334 122.5,152.5 Z"/></g>
<g><path style="opacity:1" fill="#868485" d="M 243.5,159.5 C 244.167,160.833 244.833,162.167 245.5,163.5C 245.5,164.5 245.5,165.5 245.5,166.5C 244.512,165.205 243.512,163.872 242.5,162.5C 243.404,161.791 243.737,160.791 243.5,159.5 Z"/></g>
<g><path style="opacity:1" fill="#cbb4bc" d="M 111.5,161.5 C 117.5,161.5 123.5,161.5 129.5,161.5C 138.159,164.914 147.159,166.914 156.5,167.5C 156.5,166.5 156.5,165.5 156.5,164.5C 162.711,164.61 168.711,164.61 174.5,164.5C 176.167,165.5 177.5,166.833 178.5,168.5C 172.822,165.784 166.822,164.951 160.5,166C 159.643,166.689 158.977,167.522 158.5,168.5C 154.853,169.087 151.353,170.087 148,171.5C 146.237,171.025 144.57,170.358 143,169.5C 141.936,171.269 140.769,172.936 139.5,174.5C 139.43,176.666 140.096,176.999 141.5,175.5C 143.45,176.372 145.45,177.039 147.5,177.5C 141.48,179.669 135.147,180.669 128.5,180.5C 128.196,177.478 127.696,174.478 127,171.5C 124.712,171.263 122.212,171.263 119.5,171.5C 119.5,170.5 119.5,169.5 119.5,168.5C 117.857,168.48 116.524,169.147 115.5,170.5C 114.614,169.675 114.281,168.675 114.5,167.5C 111.334,168.134 108.168,168.468 105,168.5C 104.727,166.899 104.227,165.399 103.5,164C 106.166,162.939 108.833,162.106 111.5,161.5 Z"/></g>
<g><path style="opacity:1" fill="#565354" d="M 190.5,165.5 C 193.145,166.491 195.478,167.991 197.5,170C 195.011,169.763 192.678,168.929 190.5,167.5C 190.5,166.833 190.5,166.167 190.5,165.5 Z"/></g>
<g><path style="opacity:1" fill="#817f80" d="M 235.5,165.5 C 237.216,166.574 238.216,168.241 238.5,170.5C 237.675,171.386 236.675,171.719 235.5,171.5C 235.5,169.5 235.5,167.5 235.5,165.5 Z"/></g>
<g><path style="opacity:1" fill="#605257" d="M 9.5,158.5 C 6.68507,166.787 3.35174,174.787 -0.5,182.5C -0.5,181.167 -0.5,179.833 -0.5,178.5C 2.30609,171.554 5.63942,164.888 9.5,158.5 Z"/></g>
<g><path style="opacity:1" fill="#d6bcc5" d="M 178.5,168.5 C 180.5,169.833 182.167,171.5 183.5,173.5C 184.067,175.03 184.733,176.53 185.5,178C 185.167,178.333 184.833,178.667 184.5,179C 186.923,180.571 188.256,182.737 188.5,185.5C 178.007,182.64 167.34,180.64 156.5,179.5C 153.877,177.735 150.877,177.068 147.5,177.5C 145.45,177.039 143.45,176.372 141.5,175.5C 140.096,176.999 139.43,176.666 139.5,174.5C 140.769,172.936 141.936,171.269 143,169.5C 144.57,170.358 146.237,171.025 148,171.5C 151.353,170.087 154.853,169.087 158.5,168.5C 158.977,167.522 159.643,166.689 160.5,166C 166.822,164.951 172.822,165.784 178.5,168.5 Z"/></g>
<g><path style="opacity:1" fill="#736268" d="M 174.5,164.5 C 174.5,164.167 174.5,163.833 174.5,163.5C 176.099,163.232 177.432,163.566 178.5,164.5C 178.062,164.435 177.728,164.601 177.5,165C 180.039,167.37 182.372,169.87 184.5,172.5C 184.5,173.167 184.167,173.5 183.5,173.5C 182.167,171.5 180.5,169.833 178.5,168.5C 177.5,166.833 176.167,165.5 174.5,164.5 Z"/></g>
<g><path style="opacity:1" fill="#c4aab3" d="M 106.5,161.5 C 108.167,161.5 109.833,161.5 111.5,161.5C 108.833,162.106 106.166,162.939 103.5,164C 104.227,165.399 104.727,166.899 105,168.5C 108.168,168.468 111.334,168.134 114.5,167.5C 114.281,168.675 114.614,169.675 115.5,170.5C 116.524,169.147 117.857,168.48 119.5,168.5C 119.5,169.5 119.5,170.5 119.5,171.5C 122.212,171.263 124.712,171.263 127,171.5C 127.696,174.478 128.196,177.478 128.5,180.5C 135.147,180.669 141.48,179.669 147.5,177.5C 150.877,177.068 153.877,177.735 156.5,179.5C 145.473,180.473 134.473,181.806 123.5,183.5C 122.075,183.377 120.742,183.043 119.5,182.5C 118.378,181.844 117.045,181.511 115.5,181.5C 113.68,181.649 112.18,182.316 111,183.5C 110.667,182.833 110.333,182.167 110,181.5C 107.415,181.963 105.248,183.13 103.5,185C 100.574,185.218 97.7405,185.718 95,186.5C 94.8628,182.342 92.6961,180.342 88.5,180.5C 88.7683,177.881 88.435,175.381 87.5,173C 89.3249,171.534 89.8249,169.701 89,167.5C 88.6667,167.833 88.3333,168.167 88,168.5C 86.5557,166.845 84.7224,166.178 82.5,166.5C 90.2233,164.05 98.2233,162.384 106.5,161.5 Z"/></g>
<g><path style="opacity:1" fill="#b69fa6" d="M 184.5,172.5 C 189.833,178.5 195.5,184.167 201.5,189.5C 200.662,189.842 200.328,190.508 200.5,191.5C 196.469,189.484 192.469,187.484 188.5,185.5C 188.256,182.737 186.923,180.571 184.5,179C 184.833,178.667 185.167,178.333 185.5,178C 184.733,176.53 184.067,175.03 183.5,173.5C 184.167,173.5 184.5,173.167 184.5,172.5 Z"/></g>
<g><path style="opacity:1" fill="#a4a1a1" d="M 249.5,170.5 C 262.973,173.859 275.64,179.026 287.5,186C 292.697,192.567 296.697,199.733 299.5,207.5C 299.5,208.5 299.5,209.5 299.5,210.5C 297.455,206.081 295.122,201.748 292.5,197.5C 290.907,192.394 287.907,188.227 283.5,185C 272.076,179.586 260.409,175.086 248.5,171.5C 249.167,171.5 249.5,171.167 249.5,170.5 Z"/></g>
<g><path style="opacity:1" fill="#c0a1ac" d="M 7.5,183.5 C 8.11742,183.611 8.61742,183.944 9,184.5C 9.66667,188.5 9.66667,192.5 9,196.5C 6.62886,206.87 3.4622,216.87 -0.5,226.5C -0.5,224.833 -0.5,223.167 -0.5,221.5C 3.08093,212.876 5.91426,203.876 8,194.5C 8.66667,191.833 8.66667,189.167 8,186.5C 6.45415,185.497 6.28749,184.497 7.5,183.5 Z"/></g>
<g><path style="opacity:1" fill="#726164" d="M 201.5,189.5 C 202.815,190.476 204.148,191.476 205.5,192.5C 206.944,191.019 207.611,191.352 207.5,193.5C 206.778,193.918 206.278,194.584 206,195.5C 204.568,193.561 202.735,192.228 200.5,191.5C 200.328,190.508 200.662,189.842 201.5,189.5 Z"/></g>
<g><path style="opacity:1" fill="#debcc7" d="M 34.5,222.5 C 34.1961,221.85 33.8627,221.183 33.5,220.5C 36.0996,214.134 39.0996,207.968 42.5,202C 42.2716,201.601 41.9382,201.435 41.5,201.5C 42.9323,197.046 41.2656,194.38 36.5,193.5C 38.3753,188.377 40.042,188.377 41.5,193.5C 47.9307,194.88 53.2641,198.046 57.5,203C 57.3865,204.28 56.7199,205.113 55.5,205.5C 52.1667,203.833 48.8333,202.167 45.5,200.5C 41.8628,207.817 38.1961,215.15 34.5,222.5 Z"/></g>
<g><path style="opacity:1" fill="#dfbcc8" d="M 13.5,219.5 C 12.8333,218.833 12.1667,218.167 11.5,217.5C 16.2625,206.114 20.9292,195.114 25.5,184.5C 27.1073,184.637 28.4406,185.304 29.5,186.5C 27.9974,187.052 26.3307,187.052 24.5,186.5C 24.9466,192.346 23.2799,197.346 19.5,201.5C 19.7093,202.086 20.0426,202.586 20.5,203C 18.636,208.777 16.3026,214.277 13.5,219.5 Z"/></g>
<g><path style="opacity:1" fill="#e5d1cc" d="M 292.5,197.5 C 295.122,201.748 297.455,206.081 299.5,210.5C 299.5,238.833 299.5,267.167 299.5,295.5C 298.679,292.359 298.179,289.025 298,285.5C 297.333,288.167 296.667,288.167 296,285.5C 295.699,282.02 294.865,278.687 293.5,275.5C 292.459,277.991 291.626,277.991 291,275.5C 290.5,266.173 290.334,256.839 290.5,247.5C 290.666,240.159 290.5,232.826 290,225.5C 288.337,223.842 287.504,221.842 287.5,219.5C 287.44,218.957 287.107,218.624 286.5,218.5C 284.199,229.671 283.033,241.004 283,252.5C 282.667,253.833 282.333,255.167 282,256.5C 281.667,253.833 281.333,251.167 281,248.5C 280.667,252.5 280.333,256.5 280,260.5C 279.667,256.167 279.333,251.833 279,247.5C 278.667,250.833 278.333,254.167 278,257.5C 277.667,256.833 277.333,256.167 277,255.5C 276.832,246.814 276.332,238.148 275.5,229.5C 274.669,236.476 274.169,243.476 274,250.5C 273.333,249.167 272.667,249.167 272,250.5C 270.198,243.964 269.198,244.297 269,251.5C 268.138,249.913 267.471,248.246 267,246.5C 266.667,249.5 266.333,252.5 266,255.5C 265.333,245.5 265.333,235.5 266,225.5C 266.5,224.5 267,223.5 267.5,222.5C 267.154,221.304 266.654,221.304 266,222.5C 265.503,220.19 265.337,217.857 265.5,215.5C 264.5,215.5 263.5,215.5 262.5,215.5C 262.668,212.316 261.334,211.816 258.5,214C 257.638,216.734 256.805,216.901 256,214.5C 255.667,216.5 255.333,218.5 255,220.5C 254.197,217.756 253.197,215.089 252,212.5C 250.736,210.393 248.903,209.393 246.5,209.5C 253.685,205.654 260.852,201.654 268,197.5C 268.333,197.833 268.667,198.167 269,198.5C 271.831,197.012 274.831,196.345 278,196.5C 282.56,197.265 287.06,198.265 291.5,199.5C 292.298,199.043 292.631,198.376 292.5,197.5 Z"/></g>
<g><path style="opacity:1" fill="#bd9ba7" d="M 41.5,201.5 C 41.9382,201.435 42.2716,201.601 42.5,202C 39.0996,207.968 36.0996,214.134 33.5,220.5C 33.8627,221.183 34.1961,221.85 34.5,222.5C 32.1528,227.241 29.8195,231.907 27.5,236.5C 27.7373,235.209 27.404,234.209 26.5,233.5C 30.4602,222.251 35.4602,211.584 41.5,201.5 Z"/></g>
<g><path style="opacity:1" fill="#756b6c" d="M 230.5,221.5 C 229.504,221.586 228.671,221.252 228,220.5C 227.57,217.808 227.737,215.141 228.5,212.5C 228.709,211.078 229.209,209.745 230,208.5C 230.499,212.821 230.666,217.154 230.5,221.5 Z"/></g>
<g><path style="opacity:1" fill="#797679" d="M 242.5,208.5 C 243.969,213.196 245.302,218.03 246.5,223C 245.256,223.456 244.423,222.956 244,221.5C 243.265,217.187 242.765,212.853 242.5,208.5 Z"/></g>
<g><path style="opacity:1" fill="#cdacb8" d="M 71.5,225.5 C 70.3922,226.823 70.3922,228.323 71.5,230C 70.9896,231.826 70.1562,231.993 69,230.5C 68.8195,233.695 68.3195,236.695 67.5,239.5C 67.6655,235.486 67.4988,231.486 67,227.5C 63.6358,226.06 60.1358,225.06 56.5,224.5C 56.1667,224.5 55.8333,224.5 55.5,224.5C 55.8588,222.629 56.8588,221.129 58.5,220C 61.8678,219.457 65.2011,219.624 68.5,220.5C 68.31,222.959 69.31,224.626 71.5,225.5 Z"/></g>
<g><path style="opacity:1" fill="#8d746f" d="M 259.5,249.5 C 259.737,248.209 259.404,247.209 258.5,246.5C 259.738,240.789 259.738,235.122 258.5,229.5C 258.81,228.262 259.31,228.262 260,229.5C 260.821,236.346 260.654,243.013 259.5,249.5 Z"/></g>
<g><path style="opacity:1" fill="#a4848f" d="M 71.5,225.5 C 72.8082,231.577 72.3082,237.577 70,243.5C 69.6174,244.056 69.1174,244.389 68.5,244.5C 68.0623,243.494 67.3957,243.494 66.5,244.5C 67.038,242.883 67.3713,241.216 67.5,239.5C 68.3195,236.695 68.8195,233.695 69,230.5C 70.1562,231.993 70.9896,231.826 71.5,230C 70.3922,228.323 70.3922,226.823 71.5,225.5 Z"/></g>
<g><path style="opacity:1" fill="#b696a1" d="M 11.5,217.5 C 12.1667,218.167 12.8333,218.833 13.5,219.5C 11.5632,226.143 9.72987,232.81 8,239.5C 7.42135,243.203 7.58801,246.869 8.5,250.5C 5.61352,250.39 3.28019,249.223 1.5,247C 4.35201,236.943 7.68534,227.11 11.5,217.5 Z"/></g>
<g><path style="opacity:1" fill="#e5cfcd" d="M 251.5,216.5 C 252.707,219.65 253.707,222.984 254.5,226.5C 255.086,226.291 255.586,225.957 256,225.5C 256.934,226.858 257.768,228.192 258.5,229.5C 259.738,235.122 259.738,240.789 258.5,246.5C 257.142,254.834 255.642,263.168 254,271.5C 254.643,279.842 254.476,288.175 253.5,296.5C 251.715,291.933 250.882,286.933 251,281.5C 250.8,279.68 249.966,278.347 248.5,277.5C 247.094,277.027 246.427,276.027 246.5,274.5C 244.636,270.24 242.969,265.907 241.5,261.5C 239.201,250.599 235.535,240.266 230.5,230.5C 228.957,229.264 227.957,227.598 227.5,225.5C 227.624,224.893 227.957,224.56 228.5,224.5C 229.85,228.095 232.517,229.428 236.5,228.5C 236.085,226.052 237.085,224.719 239.5,224.5C 243.316,225.987 246.983,227.654 250.5,229.5C 250.739,225.158 251.073,220.824 251.5,216.5 Z"/></g>
<g><path style="opacity:1" fill="#8f7476" d="M 230.5,230.5 C 235.535,240.266 239.201,250.599 241.5,261.5C 240.833,261.5 240.5,261.833 240.5,262.5C 239.687,260.739 238.687,259.072 237.5,257.5C 237.543,254.09 237.043,250.757 236,247.5C 233.66,241.981 231.827,236.314 230.5,230.5 Z"/></g>
<g><path style="opacity:1" fill="#fadae5" d="M 56.5,224.5 C 60.1358,225.06 63.6358,226.06 67,227.5C 67.4988,231.486 67.6655,235.486 67.5,239.5C 67.3713,241.216 67.038,242.883 66.5,244.5C 62.7578,255.726 58.4244,266.726 53.5,277.5C 47.2328,281.322 44.2328,279.489 44.5,272C 46.4102,255.525 50.4102,239.691 56.5,224.5 Z"/></g>
<g><path style="opacity:1" fill="#251712" d="M 289.5,247.5 C 288.833,251.833 288.167,256.167 287.5,260.5C 287.168,249.48 287.501,238.48 288.5,227.5C 289.497,234.134 289.83,240.8 289.5,247.5 Z"/></g>
<g><path style="opacity:1" fill="#795863" d="M 26.5,233.5 C 27.404,234.209 27.7373,235.209 27.5,236.5C 25.1043,242.688 23.1043,249.021 21.5,255.5C 21.1667,254.667 20.8333,253.833 20.5,253C 21.604,246.19 23.604,239.69 26.5,233.5 Z"/></g>
<g><path style="opacity:1" fill="#7a6862" d="M 289.5,247.5 C 289.084,257.497 288.75,267.497 288.5,277.5C 288.167,277.5 287.833,277.5 287.5,277.5C 287.5,271.833 287.5,266.167 287.5,260.5C 288.167,256.167 288.833,251.833 289.5,247.5 Z"/></g>
<g><path style="opacity:1" fill="#dbc4bf" d="M 246.5,209.5 C 248.903,209.393 250.736,210.393 252,212.5C 253.197,215.089 254.197,217.756 255,220.5C 255.333,218.5 255.667,216.5 256,214.5C 256.805,216.901 257.638,216.734 258.5,214C 261.334,211.816 262.668,212.316 262.5,215.5C 263.5,215.5 264.5,215.5 265.5,215.5C 265.337,217.857 265.503,220.19 266,222.5C 266.654,221.304 267.154,221.304 267.5,222.5C 267,223.5 266.5,224.5 266,225.5C 265.333,235.5 265.333,245.5 266,255.5C 266.333,252.5 266.667,249.5 267,246.5C 267.471,248.246 268.138,249.913 269,251.5C 269.198,244.297 270.198,243.964 272,250.5C 272.667,249.167 273.333,249.167 274,250.5C 274.169,243.476 274.669,236.476 275.5,229.5C 276.332,238.148 276.832,246.814 277,255.5C 277.333,256.167 277.667,256.833 278,257.5C 278.333,254.167 278.667,250.833 279,247.5C 279.333,251.833 279.667,256.167 280,260.5C 280.333,256.5 280.667,252.5 281,248.5C 281.333,251.167 281.667,253.833 282,256.5C 282.333,255.167 282.667,253.833 283,252.5C 283.033,241.004 284.199,229.671 286.5,218.5C 287.107,218.624 287.44,218.957 287.5,219.5C 286.502,244.328 286.169,269.328 286.5,294.5C 286.5,296.167 286.5,297.833 286.5,299.5C 285.167,299.5 283.833,299.5 282.5,299.5C 277.408,286.904 268.908,277.237 257,270.5C 257.014,263.43 257.847,256.43 259.5,249.5C 260.654,243.013 260.821,236.346 260,229.5C 259.31,228.262 258.81,228.262 258.5,229.5C 257.768,228.192 256.934,226.858 256,225.5C 255.586,225.957 255.086,226.291 254.5,226.5C 253.707,222.984 252.707,219.65 251.5,216.5C 250.956,213.3 249.29,210.967 246.5,209.5 Z"/></g>
<g><path style="opacity:1" fill="#7e616b" d="M 68.5,244.5 C 64.373,256.88 60.0397,269.213 55.5,281.5C 54.3263,280.486 53.6596,279.153 53.5,277.5C 58.4244,266.726 62.7578,255.726 66.5,244.5C 67.3957,243.494 68.0623,243.494 68.5,244.5 Z"/></g>
<g><path style="opacity:1" fill="#b89a9f" d="M 237.5,257.5 C 238.687,259.072 239.687,260.739 240.5,262.5C 240.905,265.715 241.905,268.715 243.5,271.5C 236.1,269.353 234.1,264.687 237.5,257.5 Z"/></g>
<g><path style="opacity:1" fill="#a3928c" d="M 287.5,219.5 C 287.504,221.842 288.337,223.842 290,225.5C 290.5,232.826 290.666,240.159 290.5,247.5C 290.167,247.5 289.833,247.5 289.5,247.5C 289.83,240.8 289.497,234.134 288.5,227.5C 287.501,238.48 287.168,249.48 287.5,260.5C 287.5,266.167 287.5,271.833 287.5,277.5C 287.822,283.358 287.489,289.025 286.5,294.5C 286.169,269.328 286.502,244.328 287.5,219.5 Z"/></g>
<g><path style="opacity:1" fill="#5d4246" d="M 241.5,261.5 C 242.969,265.907 244.636,270.24 246.5,274.5C 245.167,273.833 244.167,272.833 243.5,271.5C 241.905,268.715 240.905,265.715 240.5,262.5C 240.5,261.833 240.833,261.5 241.5,261.5 Z"/></g>
<g><path style="opacity:1" fill="#0c0706" d="M 258.5,246.5 C 259.404,247.209 259.737,248.209 259.5,249.5C 257.847,256.43 257.014,263.43 257,270.5C 268.908,277.237 277.408,286.904 282.5,299.5C 272.833,299.5 263.167,299.5 253.5,299.5C 253.5,298.5 253.5,297.5 253.5,296.5C 254.476,288.175 254.643,279.842 254,271.5C 255.642,263.168 257.142,254.834 258.5,246.5 Z"/></g>
<g><path style="opacity:1" fill="#a98b93" d="M 223.5,271.5 C 227.226,271.177 230.893,271.511 234.5,272.5C 232.667,272.833 230.833,273.167 229,273.5C 226.705,273.453 224.871,272.787 223.5,271.5 Z"/></g>
<g><path style="opacity:1" fill="#9e838c" d="M 55.5,224.5 C 55.8333,224.5 56.1667,224.5 56.5,224.5C 50.4102,239.691 46.4102,255.525 44.5,272C 44.2328,279.489 47.2328,281.322 53.5,277.5C 53.6596,279.153 54.3263,280.486 55.5,281.5C 50.475,287.006 45.6416,286.673 41,280.5C 40.1994,273.111 40.5328,265.777 42,258.5C 43.6667,252.833 45.3333,247.167 47,241.5C 49.7569,235.686 52.5902,230.019 55.5,224.5 Z"/></g>
<g><path style="opacity:1" fill="#ad909a" d="M 83.5,250.5 C 90.1205,257.074 94.1205,265.074 95.5,274.5C 96.2333,283.428 92.2333,287.762 83.5,287.5C 81.7816,286.776 79.9483,286.109 78,285.5C 77.6012,285.728 77.4346,286.062 77.5,286.5C 76.8745,284.374 75.5411,282.707 73.5,281.5C 72.8281,282.949 72.1614,284.282 71.5,285.5C 71.3379,283.473 71.5045,281.473 72,279.5C 75.828,269.842 79.6613,260.175 83.5,250.5 Z"/></g>
<g><path style="opacity:1" fill="#f9dae5" d="M 81.5,260.5 C 83.7224,260.178 85.5557,260.845 87,262.5C 90.0347,267.818 91.0347,273.485 90,279.5C 89.6258,280.416 89.1258,281.25 88.5,282C 80.1676,282.921 76.6676,279.088 78,270.5C 79.8681,267.395 81.0348,264.062 81.5,260.5 Z"/></g>
<g><path style="opacity:1" fill="#8a6c76" d="M 83.5,250.5 C 79.6613,260.175 75.828,269.842 72,279.5C 71.5045,281.473 71.3379,283.473 71.5,285.5C 69.6935,290.254 67.6935,294.92 65.5,299.5C 64.1667,299.5 62.8333,299.5 61.5,299.5C 67.9548,284.973 74.1214,270.307 80,255.5C 80.6972,253.416 81.8639,251.749 83.5,250.5 Z"/></g>
<g><path style="opacity:1" fill="#8a6f78" d="M 83.5,287.5 C 83.2563,291.727 82.2563,295.727 80.5,299.5C 79.1667,299.5 77.8333,299.5 76.5,299.5C 77.2946,296.45 78.2946,293.45 79.5,290.5C 78.8201,289.14 78.1534,287.807 77.5,286.5C 77.4346,286.062 77.6012,285.728 78,285.5C 79.9483,286.109 81.7816,286.776 83.5,287.5 Z"/></g>
<g><path style="opacity:1" fill="#c8b3af" d="M 289.5,247.5 C 289.833,247.5 290.167,247.5 290.5,247.5C 290.334,256.839 290.5,266.173 291,275.5C 291.626,277.991 292.459,277.991 293.5,275.5C 294.865,278.687 295.699,282.02 296,285.5C 296.667,288.167 297.333,288.167 298,285.5C 298.179,289.025 298.679,292.359 299.5,295.5C 299.5,296.833 299.5,298.167 299.5,299.5C 297.5,299.5 295.5,299.5 293.5,299.5C 293.665,295.818 293.499,292.152 293,288.5C 291.562,285.012 290.062,281.679 288.5,278.5C 288.5,278.167 288.5,277.833 288.5,277.5C 288.75,267.497 289.084,257.497 289.5,247.5 Z"/></g>
<g><path style="opacity:1" fill="#c5a4ad" d="M 187.5,285.5 C 189.379,285.393 189.712,285.893 188.5,287C 182.146,290.673 175.813,294.006 169.5,297C 175.395,292.893 181.395,289.059 187.5,285.5 Z"/></g>
<g><path style="opacity:1" fill="#93797d" d="M 248.5,277.5 C 249.966,278.347 250.8,279.68 251,281.5C 250.882,286.933 251.715,291.933 253.5,296.5C 253.5,297.5 253.5,298.5 253.5,299.5C 252.5,299.5 251.5,299.5 250.5,299.5C 249.928,292.15 249.261,284.817 248.5,277.5 Z"/></g>
<g><path style="opacity:1" fill="#f8d9e4" d="M 77.5,286.5 C 78.1534,287.807 78.8201,289.14 79.5,290.5C 78.2946,293.45 77.2946,296.45 76.5,299.5C 72.8333,299.5 69.1667,299.5 65.5,299.5C 67.6935,294.92 69.6935,290.254 71.5,285.5C 72.1614,284.282 72.8281,282.949 73.5,281.5C 75.5411,282.707 76.8745,284.374 77.5,286.5 Z"/></g>
<g><path style="opacity:1" fill="#917c77" d="M 288.5,278.5 C 290.062,281.679 291.562,285.012 293,288.5C 293.499,292.152 293.665,295.818 293.5,299.5C 292.5,299.5 291.5,299.5 290.5,299.5C 290.545,292.325 289.879,285.325 288.5,278.5 Z"/></g>
<g><path style="opacity:1" fill="#5c4742" d="M 287.5,277.5 C 287.833,277.5 288.167,277.5 288.5,277.5C 288.5,277.833 288.5,278.167 288.5,278.5C 289.879,285.325 290.545,292.325 290.5,299.5C 289.167,299.5 287.833,299.5 286.5,299.5C 286.5,297.833 286.5,296.167 286.5,294.5C 287.489,289.025 287.822,283.358 287.5,277.5 Z"/></g>
</svg>
